<?xml version="1.0" encoding="UTF-8"?>
<svg width="210px" height="32px" viewBox="0 0 210 32" version="1.1" xmlns="http://www.w3.org/2000/svg" xmlns:xlink="http://www.w3.org/1999/xlink">
    <!-- Generator: Sketch 42 (36781) - http://www.bohemiancoding.com/sketch -->
    <title>Мегапыцкер</title>
    <desc>Created with Sketch.</desc>
    <defs></defs>
    <g id="Symbols" stroke="none" stroke-width="1" fill="none" fill-rule="evenodd">
        <g id="Top-Menu" transform="translate(-32.000000, -24.000000)" fill="#4A4A4A">
            <g id="Мегапыцкер">
                <path d="M59.484,48 L54.408,48 L54.408,30.72 L54.3,30.72 L48.396,48 L43.896,48 L37.812,30.72 L37.668,30.72 L37.668,48 L32.52,48 L32.52,24.636 L40.512,24.636 L46.272,41.34 L51.96,24.636 L59.484,24.636 L59.484,48 Z M80.4,40.692 L69.096,40.692 L69.096,42.276 C69.096,43.2600049 69.4439965,43.9739978 70.14,44.418 C70.8360035,44.8620022 72.1439904,45.084 74.064,45.084 C75.7920086,45.084 77.7359892,44.8320025 79.896,44.328 L79.896,47.676 C77.687989,48.1320023 75.4080118,48.36 73.056,48.36 C66.8879692,48.36 63.804,46.4760188 63.804,42.708 L63.804,36.444 C63.804,34.2119888 64.5239928,32.6160048 65.964,31.656 C67.4040072,30.6959952 69.5519857,30.216 72.408,30.216 C75.0960134,30.216 77.0999934,30.6719954 78.42,31.584 C79.7400066,32.4960046 80.4,34.1159884 80.4,36.444 L80.4,40.692 Z M75.396,37.704 L75.396,35.184 C75.396,34.6319972 75.1740022,34.2060015 74.73,33.906 C74.2859978,33.6059985 73.4880058,33.456 72.336,33.456 C71.0639936,33.456 70.2060022,33.6059985 69.762,33.906 C69.3179978,34.2060015 69.096,34.6319972 69.096,35.184 L69.096,37.704 L75.396,37.704 Z M96.132,33.816 L89.688,33.816 L89.688,48 L84.432,48 L84.432,30.576 L96.132,30.576 L96.132,33.816 Z M114.708,48 L109.56,48 L109.56,46.416 C109.175998,47.1120035 108.624004,47.6099985 107.904,47.91 C107.183996,48.2100015 105.86401,48.36 103.944,48.36 C101.591988,48.36 100.032004,48.0000036 99.264,47.28 C98.4959962,46.5599964 98.112,45.0600114 98.112,42.78 C98.112,40.7159897 98.507996,39.282004 99.3,38.478 C100.092004,37.673996 101.50799,37.272 103.548,37.272 L109.452,37.272 L109.452,36.084 C109.452,35.0279947 109.206002,34.3260017 108.714,33.978 C108.221998,33.6299983 107.184008,33.456 105.6,33.456 C104.111993,33.456 102.072013,33.5999986 99.48,33.888 L99.48,30.576 C101.47201,30.3359988 103.691988,30.216 106.14,30.216 C109.356016,30.216 111.587994,30.6059961 112.836,31.386 C114.084006,32.1660039 114.708,33.7079885 114.708,36.012 L114.708,48 Z M109.452,43.536 L109.452,40.152 L105.852,40.152 C104.699994,40.152 103.980001,40.2839987 103.692,40.548 C103.403999,40.8120013 103.26,41.5199942 103.26,42.672 C103.26,43.8000056 103.409999,44.4839988 103.71,44.724 C104.010002,44.9640012 104.771994,45.084 105.996,45.084 C106.596003,45.084 107.039999,45.0780001 107.328,45.066 C107.616001,45.0539999 107.927998,45.0240002 108.264,44.976 C108.600002,44.9279998 108.833999,44.8500005 108.966,44.742 C109.098001,44.6339995 109.212,44.484001 109.308,44.292 C109.404,44.099999 109.452,43.8480016 109.452,43.536 Z M134.76,48 L131.52,48 L131.52,32.952 L123.276,32.952 L123.276,48 L120.036,48 L120.036,30.576 L134.76,30.576 L134.76,48 Z M161.04,48 L157.8,48 L157.8,30.576 L161.04,30.576 L161.04,48 Z M148.656,48 L140.808,48 L140.808,30.576 L144.12,30.576 L144.12,36.876 L148.944,36.876 C151.080011,36.876 152.627995,37.1279975 153.588,37.632 C154.548005,38.1360025 155.028,39.1319926 155.028,40.62 L155.028,44.22 C155.028,46.7400126 152.904021,48 148.656,48 Z M151.86,43.788 L151.86,41.592 C151.86,40.583995 151.650002,39.9060017 151.23,39.558 C150.809998,39.2099983 149.904007,39.036 148.512,39.036 L144.084,39.036 L144.084,45.912 L148.44,45.912 C148.872002,45.912 149.237999,45.8940002 149.538,45.858 C149.838002,45.8219998 150.191998,45.7500005 150.6,45.642 C151.008002,45.5339995 151.319999,45.3180016 151.536,44.994 C151.752001,44.6699984 151.86,44.2680024 151.86,43.788 Z M181.992,52.824 L178.86,52.824 L178.86,48 L166.908,48 L166.908,30.576 L170.148,30.576 L170.148,45.624 L178.752,45.624 L178.752,30.576 L181.992,30.576 L181.992,52.824 Z M187.788,48 L187.788,30.576 L191.028,30.576 L191.028,38.1 C191.868004,38.1 192.509998,37.9800012 192.954,37.74 C193.398002,37.4999988 193.883997,36.9600042 194.412,36.12 L196.176,33.276 C196.848003,32.1719945 197.537996,31.4460017 198.246,31.098 C198.954004,30.7499983 199.967993,30.576 201.288,30.576 L202.512,30.576 L202.512,32.412 L201.828,32.412 C200.603994,32.412 199.596004,33.0479936 198.804,34.32 L197.436,36.552 C196.595996,38.0160073 195.732004,38.8559989 194.844,39.072 C195.516003,39.2400008 196.83599,40.4159891 198.804,42.6 L203.664,48 L199.668,48 L194.916,42.6 C194.219997,41.807996 193.584003,41.2200019 193.008,40.836 C192.431997,40.4519981 192.048001,40.2480001 191.856,40.224 C191.663999,40.1999999 191.388002,40.188 191.028,40.188 L191.028,48 L187.788,48 Z M220.224,40.008 L208.524,40.008 L208.524,42.636 C208.524,43.8600061 208.961996,44.7299974 209.838,45.246 C210.714004,45.7620026 212.039991,46.02 213.816,46.02 C215.376008,46.02 217.283989,45.7320029 219.54,45.156 L219.54,47.64 C217.283989,48.1200024 215.040011,48.36 212.808,48.36 C210.575989,48.36 208.758007,47.9340043 207.354,47.082 C205.949993,46.2299957 205.248,44.8800092 205.248,43.032 L205.248,36.156 C205.248,34.0199893 205.859994,32.4960046 207.084,31.584 C208.308006,30.6719954 210.263987,30.216 212.952,30.216 C215.472013,30.216 217.313994,30.6539956 218.478,31.53 C219.642006,32.4060044 220.224,33.947989 220.224,36.156 L220.224,40.008 Z M216.984,37.884 L216.984,35.148 C216.984,34.0919947 216.666003,33.366002 216.03,32.97 C215.393997,32.573998 214.344007,32.376 212.88,32.376 C211.391993,32.376 210.294004,32.5619981 209.586,32.934 C208.877996,33.3060019 208.524,34.0439945 208.524,35.148 L208.524,37.884 L216.984,37.884 Z M241.032,35.148 L241.032,42.312 C241.032,43.3680053 240.876002,44.2799962 240.564,45.048 C240.251998,45.8160038 239.862002,46.4099979 239.394,46.83 C238.925998,47.2500021 238.308004,47.5799988 237.54,47.82 C236.771996,48.0600012 236.052003,48.2099997 235.38,48.27 C234.707997,48.3300003 233.892005,48.36 232.932,48.36 C231.971995,48.36 231.036005,48.2400012 230.124,48 C229.211995,47.7599988 228.636001,47.3880025 228.396,46.884 L228.396,55.128 L225.156,55.128 L225.156,30.576 L228.396,30.576 L228.396,32.448 C228.660001,30.9599926 230.639982,30.216 234.336,30.216 C236.664012,30.216 238.361995,30.7019951 239.43,31.674 C240.498005,32.6460049 241.032,33.8039933 241.032,35.148 Z M237.72,42.708 L237.72,36.3 C237.72,34.691992 237.372003,33.6660022 236.676,33.222 C235.979997,32.7779978 234.744009,32.556 232.968,32.556 C231.167991,32.556 229.926003,32.7779978 229.242,33.222 C228.557997,33.6660022 228.216,34.691992 228.216,36.3 L228.216,42.708 C228.216,44.1720073 228.569996,45.1139979 229.278,45.534 C229.986004,45.9540021 231.227991,46.164 233.004,46.164 C234.780009,46.164 236.009997,45.9540021 236.694,45.534 C237.378003,45.1139979 237.72,44.1720073 237.72,42.708 Z"></path>
            </g>
        </g>
    </g>
</svg>