<?xml version="1.0" encoding="UTF-8"?>
<svg width="26px" height="26px" viewBox="0 0 26 26" version="1.1" xmlns="http://www.w3.org/2000/svg" xmlns:xlink="http://www.w3.org/1999/xlink">
    <!-- Generator: Sketch 42 (36781) - http://www.bohemiancoding.com/sketch -->
    <title>move</title>
    <desc>Created with Sketch.</desc>
    <defs></defs>
    <path d="M16,4 L18.3,6.3 L15.41,9.17 L16.83,10.59 L19.7,7.7 L22,10 L22,4 L16,4 Z M4,10 L6.3,7.7 L9.17,10.59 L10.59,9.17 L7.7,6.3 L10,4 L4,4 L4,10 Z M10,22 L7.7,19.7 L10.59,16.83 L9.17,15.41 L6.3,18.3 L4,16 L4,22 L10,22 Z M22,16 L19.7,18.3 L16.83,15.41 L15.41,16.83 L18.3,19.7 L16,22 L22,22 L22,16 Z" id="move" fill-rule="nonzero" transform="translate(13.000000, 13.000000) rotate(45.000000) translate(-13.000000, -13.000000) "></path>
</svg>
