<?xml version="1.0" encoding="utf-8"?>
<svg width="32" height="32" viewBox="0 0 24 24" xmlns="http://www.w3.org/2000/svg" xmlns:bx="https://boxy-svg.com">
  <path d="M 18.84 15.87 L 14.3 13.61 C 14.13 13.54 13.95 13.5 13.76 13.5 L 13 13.5 L 13 7.5 C 13 6.67 12.33 6 11.5 6 C 10.67 6 10 6.67 10 7.5 L 10 18.24 L 6.57 17.52 C 6.49 17.51 6.42 17.49 6.33 17.49 C 6.02 17.49 5.74 17.62 5.54 17.82 L 4.75 18.62 L 9.69 23.56 C 9.96 23.83 10.34 24 10.75 24 L 17.54 24 C 18.29 24 18.87 23.45 18.98 22.72 L 19.73 17.45 C 19.74 17.38 19.75 17.31 19.75 17.25 C 19.75 16.63 19.37 16.09 18.84 15.87 L 18.84 15.87 Z"/>
  <path d="M 40.877 11.083 L 42.801 14.468 L 38.952 14.468 L 40.877 11.083 Z"  transform="matrix(0, 1, -1, 0, 30.688099, -34.000744)" bx:shape="triangle 38.952 11.083 3.849 3.385 0.5 0 1@effbf72e"/>
  <path d="M 5.23 5.276 L 7.154 8.661 L 3.305 8.661 L 5.23 5.276 Z"  transform="matrix(0, -1, 1, 0, -2.295456, 12.105256)" bx:shape="triangle 3.305 5.276 3.849 3.385 0.5 0 1@89abd485"/>
</svg>
